<mxfile host="app.diagrams.net" agent="Mozilla/5.0 (Windows NT 10.0; Win64; x64) AppleWebKit/537.36 (KHTML, like Gecko) Chrome/139.0.0.0 Safari/537.36" version="28.0.7">
  <diagram name="Page-1" id="QZUfZD405yA-LEJdmu-g">
    <mxGraphModel dx="3320" dy="2021" grid="1" gridSize="10" guides="1" tooltips="1" connect="1" arrows="1" fold="1" page="1" pageScale="1" pageWidth="850" pageHeight="1100" math="0" shadow="0">
      <root>
        <mxCell id="0" />
        <mxCell id="1" parent="0" />
        <mxCell id="9tK4x2b667_dypUiwHpl-6" value="VFT List Management:" style="swimlane;fontStyle=1;childLayout=stackLayout;horizontal=1;startSize=26;horizontalStack=0;resizeParent=1;resizeParentMax=0;resizeLast=0;collapsible=1;marginBottom=0;" parent="1" vertex="1">
          <mxGeometry x="-10" y="-360" width="210" height="182" as="geometry" />
        </mxCell>
        <mxCell id="9tK4x2b667_dypUiwHpl-8" value="[View VFT List]           (V1)" style="text;strokeColor=none;fillColor=none;align=left;verticalAlign=top;spacingLeft=4;spacingRight=4;overflow=hidden;rotatable=0;points=[[0,0.5],[1,0.5]];portConstraint=eastwest;" parent="9tK4x2b667_dypUiwHpl-6" vertex="1">
          <mxGeometry y="26" width="210" height="26" as="geometry" />
        </mxCell>
        <mxCell id="9tK4x2b667_dypUiwHpl-9" value="[Create VFT]              (V2)" style="text;strokeColor=none;fillColor=none;align=left;verticalAlign=top;spacingLeft=4;spacingRight=4;overflow=hidden;rotatable=0;points=[[0,0.5],[1,0.5]];portConstraint=eastwest;" parent="9tK4x2b667_dypUiwHpl-6" vertex="1">
          <mxGeometry y="52" width="210" height="26" as="geometry" />
        </mxCell>
        <mxCell id="9tK4x2b667_dypUiwHpl-10" value="[Edit VFT]                (V3)" style="text;strokeColor=none;fillColor=none;align=left;verticalAlign=top;spacingLeft=4;spacingRight=4;overflow=hidden;rotatable=0;points=[[0,0.5],[1,0.5]];portConstraint=eastwest;" parent="9tK4x2b667_dypUiwHpl-6" vertex="1">
          <mxGeometry y="78" width="210" height="26" as="geometry" />
        </mxCell>
        <mxCell id="9tK4x2b667_dypUiwHpl-11" value="[Delete VFT]              (V4)" style="text;strokeColor=none;fillColor=none;align=left;verticalAlign=top;spacingLeft=4;spacingRight=4;overflow=hidden;rotatable=0;points=[[0,0.5],[1,0.5]];portConstraint=eastwest;" parent="9tK4x2b667_dypUiwHpl-6" vertex="1">
          <mxGeometry y="104" width="210" height="26" as="geometry" />
        </mxCell>
        <mxCell id="9tK4x2b667_dypUiwHpl-12" value="[Review Member Request]   (V5)" style="text;strokeColor=none;fillColor=none;align=left;verticalAlign=top;spacingLeft=4;spacingRight=4;overflow=hidden;rotatable=0;points=[[0,0.5],[1,0.5]];portConstraint=eastwest;" parent="9tK4x2b667_dypUiwHpl-6" vertex="1">
          <mxGeometry y="130" width="210" height="26" as="geometry" />
        </mxCell>
        <mxCell id="9tK4x2b667_dypUiwHpl-13" value="[Direct Member Management](V6)" style="text;strokeColor=none;fillColor=none;align=left;verticalAlign=top;spacingLeft=4;spacingRight=4;overflow=hidden;rotatable=0;points=[[0,0.5],[1,0.5]];portConstraint=eastwest;" parent="9tK4x2b667_dypUiwHpl-6" vertex="1">
          <mxGeometry y="156" width="210" height="26" as="geometry" />
        </mxCell>
        <mxCell id="9tK4x2b667_dypUiwHpl-14" value="VFT Assignment Management:" style="swimlane;fontStyle=1;childLayout=stackLayout;horizontal=1;startSize=26;horizontalStack=0;resizeParent=1;resizeParentMax=0;resizeLast=0;collapsible=1;marginBottom=0;" parent="1" vertex="1">
          <mxGeometry x="80" y="-120" width="210" height="104" as="geometry" />
        </mxCell>
        <mxCell id="9tK4x2b667_dypUiwHpl-16" value="[Create Assignment]       (A1)" style="text;strokeColor=none;fillColor=none;align=left;verticalAlign=top;spacingLeft=4;spacingRight=4;overflow=hidden;rotatable=0;points=[[0,0.5],[1,0.5]];portConstraint=eastwest;" parent="9tK4x2b667_dypUiwHpl-14" vertex="1">
          <mxGeometry y="26" width="210" height="26" as="geometry" />
        </mxCell>
        <mxCell id="9tK4x2b667_dypUiwHpl-17" value="[Edit Assignment]         (A2)" style="text;strokeColor=none;fillColor=none;align=left;verticalAlign=top;spacingLeft=4;spacingRight=4;overflow=hidden;rotatable=0;points=[[0,0.5],[1,0.5]];portConstraint=eastwest;" parent="9tK4x2b667_dypUiwHpl-14" vertex="1">
          <mxGeometry y="52" width="210" height="26" as="geometry" />
        </mxCell>
        <mxCell id="9tK4x2b667_dypUiwHpl-18" value="[Delete Assignment]       (A3)" style="text;strokeColor=none;fillColor=none;align=left;verticalAlign=top;spacingLeft=4;spacingRight=4;overflow=hidden;rotatable=0;points=[[0,0.5],[1,0.5]];portConstraint=eastwest;" parent="9tK4x2b667_dypUiwHpl-14" vertex="1">
          <mxGeometry y="78" width="210" height="26" as="geometry" />
        </mxCell>
        <mxCell id="9tK4x2b667_dypUiwHpl-19" value="Assignment Approval Panel:" style="swimlane;fontStyle=1;childLayout=stackLayout;horizontal=1;startSize=26;horizontalStack=0;resizeParent=1;resizeParentMax=0;resizeLast=0;collapsible=1;marginBottom=0;" parent="1" vertex="1">
          <mxGeometry x="380" y="-146" width="210" height="78" as="geometry" />
        </mxCell>
        <mxCell id="9tK4x2b667_dypUiwHpl-21" value="[Review Assignment Requests] (AP1)" style="text;strokeColor=none;fillColor=none;align=left;verticalAlign=top;spacingLeft=4;spacingRight=4;overflow=hidden;rotatable=0;points=[[0,0.5],[1,0.5]];portConstraint=eastwest;" parent="9tK4x2b667_dypUiwHpl-19" vertex="1">
          <mxGeometry y="26" width="210" height="26" as="geometry" />
        </mxCell>
        <mxCell id="9tK4x2b667_dypUiwHpl-22" value="[Approve/Reject Requests]    (AP2)" style="text;strokeColor=none;fillColor=none;align=left;verticalAlign=top;spacingLeft=4;spacingRight=4;overflow=hidden;rotatable=0;points=[[0,0.5],[1,0.5]];portConstraint=eastwest;" parent="9tK4x2b667_dypUiwHpl-19" vertex="1">
          <mxGeometry y="52" width="210" height="26" as="geometry" />
        </mxCell>
        <mxCell id="9tK4x2b667_dypUiwHpl-23" value="Flows for VFT Responsible:" style="swimlane;fontStyle=1;childLayout=stackLayout;horizontal=1;startSize=26;horizontalStack=0;resizeParent=1;resizeParentMax=0;resizeLast=0;collapsible=1;marginBottom=0;" parent="1" vertex="1">
          <mxGeometry x="-860" y="-224" width="350" height="234" as="geometry" />
        </mxCell>
        <mxCell id="9tK4x2b667_dypUiwHpl-25" value="VFT Responsible --&gt; V1 : View Own VFTs" style="text;strokeColor=none;fillColor=none;align=left;verticalAlign=top;spacingLeft=4;spacingRight=4;overflow=hidden;rotatable=0;points=[[0,0.5],[1,0.5]];portConstraint=eastwest;" parent="9tK4x2b667_dypUiwHpl-23" vertex="1">
          <mxGeometry y="26" width="350" height="26" as="geometry" />
        </mxCell>
        <mxCell id="9tK4x2b667_dypUiwHpl-26" value="VFT Responsible --&gt; V2 : Request Create (Approval Needed)" style="text;strokeColor=none;fillColor=none;align=left;verticalAlign=top;spacingLeft=4;spacingRight=4;overflow=hidden;rotatable=0;points=[[0,0.5],[1,0.5]];portConstraint=eastwest;" parent="9tK4x2b667_dypUiwHpl-23" vertex="1">
          <mxGeometry y="52" width="350" height="26" as="geometry" />
        </mxCell>
        <mxCell id="9tK4x2b667_dypUiwHpl-27" value="VFT Responsible --&gt; V3 : Request Edit (Approval Needed)" style="text;strokeColor=none;fillColor=none;align=left;verticalAlign=top;spacingLeft=4;spacingRight=4;overflow=hidden;rotatable=0;points=[[0,0.5],[1,0.5]];portConstraint=eastwest;" parent="9tK4x2b667_dypUiwHpl-23" vertex="1">
          <mxGeometry y="78" width="350" height="26" as="geometry" />
        </mxCell>
        <mxCell id="9tK4x2b667_dypUiwHpl-28" value="VFT Responsible --&gt; V5 : Submit Member Requests" style="text;strokeColor=none;fillColor=none;align=left;verticalAlign=top;spacingLeft=4;spacingRight=4;overflow=hidden;rotatable=0;points=[[0,0.5],[1,0.5]];portConstraint=eastwest;" parent="9tK4x2b667_dypUiwHpl-23" vertex="1">
          <mxGeometry y="104" width="350" height="26" as="geometry" />
        </mxCell>
        <mxCell id="9tK4x2b667_dypUiwHpl-29" value="VFT Responsible --&gt; A1 : Create for Assigned Members" style="text;strokeColor=none;fillColor=none;align=left;verticalAlign=top;spacingLeft=4;spacingRight=4;overflow=hidden;rotatable=0;points=[[0,0.5],[1,0.5]];portConstraint=eastwest;" parent="9tK4x2b667_dypUiwHpl-23" vertex="1">
          <mxGeometry y="130" width="350" height="26" as="geometry" />
        </mxCell>
        <mxCell id="9tK4x2b667_dypUiwHpl-30" value="VFT Responsible --&gt; A2 : Edit Own Assignments" style="text;strokeColor=none;fillColor=none;align=left;verticalAlign=top;spacingLeft=4;spacingRight=4;overflow=hidden;rotatable=0;points=[[0,0.5],[1,0.5]];portConstraint=eastwest;" parent="9tK4x2b667_dypUiwHpl-23" vertex="1">
          <mxGeometry y="156" width="350" height="26" as="geometry" />
        </mxCell>
        <mxCell id="9tK4x2b667_dypUiwHpl-31" value="VFT Responsible --&gt; A3 : Request Delete" style="text;strokeColor=none;fillColor=none;align=left;verticalAlign=top;spacingLeft=4;spacingRight=4;overflow=hidden;rotatable=0;points=[[0,0.5],[1,0.5]];portConstraint=eastwest;" parent="9tK4x2b667_dypUiwHpl-23" vertex="1">
          <mxGeometry y="182" width="350" height="26" as="geometry" />
        </mxCell>
        <mxCell id="9tK4x2b667_dypUiwHpl-32" value="VFT Responsible --&gt; AP1 : Submit Requests" style="text;strokeColor=none;fillColor=none;align=left;verticalAlign=top;spacingLeft=4;spacingRight=4;overflow=hidden;rotatable=0;points=[[0,0.5],[1,0.5]];portConstraint=eastwest;" parent="9tK4x2b667_dypUiwHpl-23" vertex="1">
          <mxGeometry y="208" width="350" height="26" as="geometry" />
        </mxCell>
        <mxCell id="9tK4x2b667_dypUiwHpl-33" value="Flows for Admin/RG Manager:" style="swimlane;fontStyle=1;childLayout=stackLayout;horizontal=1;startSize=26;horizontalStack=0;resizeParent=1;resizeParentMax=0;resizeLast=0;collapsible=1;marginBottom=0;" parent="1" vertex="1">
          <mxGeometry x="-450" y="-360" width="400" height="312" as="geometry" />
        </mxCell>
        <mxCell id="9tK4x2b667_dypUiwHpl-35" value="Admin/RG Manager --&gt; V1 : View All VFTs" style="text;strokeColor=none;fillColor=none;align=left;verticalAlign=top;spacingLeft=4;spacingRight=4;overflow=hidden;rotatable=0;points=[[0,0.5],[1,0.5]];portConstraint=eastwest;" parent="9tK4x2b667_dypUiwHpl-33" vertex="1">
          <mxGeometry y="26" width="400" height="26" as="geometry" />
        </mxCell>
        <mxCell id="9tK4x2b667_dypUiwHpl-36" value="Admin/RG Manager --&gt; V2 : Create Any VFT" style="text;strokeColor=none;fillColor=none;align=left;verticalAlign=top;spacingLeft=4;spacingRight=4;overflow=hidden;rotatable=0;points=[[0,0.5],[1,0.5]];portConstraint=eastwest;" parent="9tK4x2b667_dypUiwHpl-33" vertex="1">
          <mxGeometry y="52" width="400" height="26" as="geometry" />
        </mxCell>
        <mxCell id="9tK4x2b667_dypUiwHpl-37" value="Admin/RG Manager --&gt; V3 : Edit Any VFT" style="text;strokeColor=none;fillColor=none;align=left;verticalAlign=top;spacingLeft=4;spacingRight=4;overflow=hidden;rotatable=0;points=[[0,0.5],[1,0.5]];portConstraint=eastwest;" parent="9tK4x2b667_dypUiwHpl-33" vertex="1">
          <mxGeometry y="78" width="400" height="26" as="geometry" />
        </mxCell>
        <mxCell id="9tK4x2b667_dypUiwHpl-38" value="Admin/RG Manager --&gt; V4 : Delete Any VFT" style="text;strokeColor=none;fillColor=none;align=left;verticalAlign=top;spacingLeft=4;spacingRight=4;overflow=hidden;rotatable=0;points=[[0,0.5],[1,0.5]];portConstraint=eastwest;" parent="9tK4x2b667_dypUiwHpl-33" vertex="1">
          <mxGeometry y="104" width="400" height="26" as="geometry" />
        </mxCell>
        <mxCell id="9tK4x2b667_dypUiwHpl-39" value="Admin/RG Manager --&gt; V5 : Approve/Reject Member Requests" style="text;strokeColor=none;fillColor=none;align=left;verticalAlign=top;spacingLeft=4;spacingRight=4;overflow=hidden;rotatable=0;points=[[0,0.5],[1,0.5]];portConstraint=eastwest;" parent="9tK4x2b667_dypUiwHpl-33" vertex="1">
          <mxGeometry y="130" width="400" height="26" as="geometry" />
        </mxCell>
        <mxCell id="9tK4x2b667_dypUiwHpl-40" value="Admin/RG Manager --&gt; V6 : Direct Member Update" style="text;strokeColor=none;fillColor=none;align=left;verticalAlign=top;spacingLeft=4;spacingRight=4;overflow=hidden;rotatable=0;points=[[0,0.5],[1,0.5]];portConstraint=eastwest;" parent="9tK4x2b667_dypUiwHpl-33" vertex="1">
          <mxGeometry y="156" width="400" height="26" as="geometry" />
        </mxCell>
        <mxCell id="9tK4x2b667_dypUiwHpl-41" value="Admin/RG Manager --&gt; A1 : Create Assignment (Immediate)" style="text;strokeColor=none;fillColor=none;align=left;verticalAlign=top;spacingLeft=4;spacingRight=4;overflow=hidden;rotatable=0;points=[[0,0.5],[1,0.5]];portConstraint=eastwest;" parent="9tK4x2b667_dypUiwHpl-33" vertex="1">
          <mxGeometry y="182" width="400" height="26" as="geometry" />
        </mxCell>
        <mxCell id="9tK4x2b667_dypUiwHpl-42" value="Admin/RG Manager --&gt; A2 : Edit Assignment (Immediate)" style="text;strokeColor=none;fillColor=none;align=left;verticalAlign=top;spacingLeft=4;spacingRight=4;overflow=hidden;rotatable=0;points=[[0,0.5],[1,0.5]];portConstraint=eastwest;" parent="9tK4x2b667_dypUiwHpl-33" vertex="1">
          <mxGeometry y="208" width="400" height="26" as="geometry" />
        </mxCell>
        <mxCell id="9tK4x2b667_dypUiwHpl-43" value="Admin/RG Manager --&gt; A3 : Delete Assignment (Immediate)" style="text;strokeColor=none;fillColor=none;align=left;verticalAlign=top;spacingLeft=4;spacingRight=4;overflow=hidden;rotatable=0;points=[[0,0.5],[1,0.5]];portConstraint=eastwest;" parent="9tK4x2b667_dypUiwHpl-33" vertex="1">
          <mxGeometry y="234" width="400" height="26" as="geometry" />
        </mxCell>
        <mxCell id="9tK4x2b667_dypUiwHpl-44" value="Admin/RG Manager --&gt; AP1 : View All Requests" style="text;strokeColor=none;fillColor=none;align=left;verticalAlign=top;spacingLeft=4;spacingRight=4;overflow=hidden;rotatable=0;points=[[0,0.5],[1,0.5]];portConstraint=eastwest;" parent="9tK4x2b667_dypUiwHpl-33" vertex="1">
          <mxGeometry y="260" width="400" height="26" as="geometry" />
        </mxCell>
        <mxCell id="9tK4x2b667_dypUiwHpl-45" value="Admin/RG Manager --&gt; AP2 : Approve/Reject All" style="text;strokeColor=none;fillColor=none;align=left;verticalAlign=top;spacingLeft=4;spacingRight=4;overflow=hidden;rotatable=0;points=[[0,0.5],[1,0.5]];portConstraint=eastwest;" parent="9tK4x2b667_dypUiwHpl-33" vertex="1">
          <mxGeometry y="286" width="400" height="26" as="geometry" />
        </mxCell>
        <mxCell id="9tK4x2b667_dypUiwHpl-46" value="Flows for Dual Role (VFT + Admin):" style="swimlane;fontStyle=1;childLayout=stackLayout;horizontal=1;startSize=26;horizontalStack=0;resizeParent=1;resizeParentMax=0;resizeLast=0;collapsible=1;marginBottom=0;" parent="1" vertex="1">
          <mxGeometry x="600" y="-672" width="240" height="312" as="geometry" />
        </mxCell>
        <mxCell id="9tK4x2b667_dypUiwHpl-48" value="Dual Role --&gt; V1" style="text;strokeColor=none;fillColor=none;align=left;verticalAlign=top;spacingLeft=4;spacingRight=4;overflow=hidden;rotatable=0;points=[[0,0.5],[1,0.5]];portConstraint=eastwest;" parent="9tK4x2b667_dypUiwHpl-46" vertex="1">
          <mxGeometry y="26" width="240" height="26" as="geometry" />
        </mxCell>
        <mxCell id="9tK4x2b667_dypUiwHpl-49" value="Dual Role --&gt; V2" style="text;strokeColor=none;fillColor=none;align=left;verticalAlign=top;spacingLeft=4;spacingRight=4;overflow=hidden;rotatable=0;points=[[0,0.5],[1,0.5]];portConstraint=eastwest;" parent="9tK4x2b667_dypUiwHpl-46" vertex="1">
          <mxGeometry y="52" width="240" height="26" as="geometry" />
        </mxCell>
        <mxCell id="9tK4x2b667_dypUiwHpl-50" value="Dual Role --&gt; V3" style="text;strokeColor=none;fillColor=none;align=left;verticalAlign=top;spacingLeft=4;spacingRight=4;overflow=hidden;rotatable=0;points=[[0,0.5],[1,0.5]];portConstraint=eastwest;" parent="9tK4x2b667_dypUiwHpl-46" vertex="1">
          <mxGeometry y="78" width="240" height="26" as="geometry" />
        </mxCell>
        <mxCell id="9tK4x2b667_dypUiwHpl-51" value="Dual Role --&gt; V4" style="text;strokeColor=none;fillColor=none;align=left;verticalAlign=top;spacingLeft=4;spacingRight=4;overflow=hidden;rotatable=0;points=[[0,0.5],[1,0.5]];portConstraint=eastwest;" parent="9tK4x2b667_dypUiwHpl-46" vertex="1">
          <mxGeometry y="104" width="240" height="26" as="geometry" />
        </mxCell>
        <mxCell id="9tK4x2b667_dypUiwHpl-52" value="Dual Role --&gt; V5" style="text;strokeColor=none;fillColor=none;align=left;verticalAlign=top;spacingLeft=4;spacingRight=4;overflow=hidden;rotatable=0;points=[[0,0.5],[1,0.5]];portConstraint=eastwest;" parent="9tK4x2b667_dypUiwHpl-46" vertex="1">
          <mxGeometry y="130" width="240" height="26" as="geometry" />
        </mxCell>
        <mxCell id="9tK4x2b667_dypUiwHpl-53" value="Dual Role --&gt; V6" style="text;strokeColor=none;fillColor=none;align=left;verticalAlign=top;spacingLeft=4;spacingRight=4;overflow=hidden;rotatable=0;points=[[0,0.5],[1,0.5]];portConstraint=eastwest;" parent="9tK4x2b667_dypUiwHpl-46" vertex="1">
          <mxGeometry y="156" width="240" height="26" as="geometry" />
        </mxCell>
        <mxCell id="9tK4x2b667_dypUiwHpl-54" value="Dual Role --&gt; A1" style="text;strokeColor=none;fillColor=none;align=left;verticalAlign=top;spacingLeft=4;spacingRight=4;overflow=hidden;rotatable=0;points=[[0,0.5],[1,0.5]];portConstraint=eastwest;" parent="9tK4x2b667_dypUiwHpl-46" vertex="1">
          <mxGeometry y="182" width="240" height="26" as="geometry" />
        </mxCell>
        <mxCell id="9tK4x2b667_dypUiwHpl-55" value="Dual Role --&gt; A2" style="text;strokeColor=none;fillColor=none;align=left;verticalAlign=top;spacingLeft=4;spacingRight=4;overflow=hidden;rotatable=0;points=[[0,0.5],[1,0.5]];portConstraint=eastwest;" parent="9tK4x2b667_dypUiwHpl-46" vertex="1">
          <mxGeometry y="208" width="240" height="26" as="geometry" />
        </mxCell>
        <mxCell id="9tK4x2b667_dypUiwHpl-56" value="Dual Role --&gt; A3" style="text;strokeColor=none;fillColor=none;align=left;verticalAlign=top;spacingLeft=4;spacingRight=4;overflow=hidden;rotatable=0;points=[[0,0.5],[1,0.5]];portConstraint=eastwest;" parent="9tK4x2b667_dypUiwHpl-46" vertex="1">
          <mxGeometry y="234" width="240" height="26" as="geometry" />
        </mxCell>
        <mxCell id="9tK4x2b667_dypUiwHpl-57" value="Dual Role --&gt; AP1" style="text;strokeColor=none;fillColor=none;align=left;verticalAlign=top;spacingLeft=4;spacingRight=4;overflow=hidden;rotatable=0;points=[[0,0.5],[1,0.5]];portConstraint=eastwest;" parent="9tK4x2b667_dypUiwHpl-46" vertex="1">
          <mxGeometry y="260" width="240" height="26" as="geometry" />
        </mxCell>
        <mxCell id="9tK4x2b667_dypUiwHpl-58" value="Dual Role --&gt; AP2" style="text;strokeColor=none;fillColor=none;align=left;verticalAlign=top;spacingLeft=4;spacingRight=4;overflow=hidden;rotatable=0;points=[[0,0.5],[1,0.5]];portConstraint=eastwest;" parent="9tK4x2b667_dypUiwHpl-46" vertex="1">
          <mxGeometry y="286" width="240" height="26" as="geometry" />
        </mxCell>
        <mxCell id="9tK4x2b667_dypUiwHpl-59" value="&lt;b&gt;&lt;font style=&quot;font-size: 18px;&quot;&gt;Virtual Function Team (VFT)&amp;nbsp;&lt;/font&gt;&lt;/b&gt;" style="text;strokeColor=none;align=center;fillColor=none;html=1;verticalAlign=middle;whiteSpace=wrap;rounded=0;" parent="1" vertex="1">
          <mxGeometry x="-310" y="10" width="590" height="30" as="geometry" />
        </mxCell>
        <mxCell id="9tK4x2b667_dypUiwHpl-67" value="" style="edgeStyle=orthogonalEdgeStyle;rounded=0;orthogonalLoop=1;jettySize=auto;html=1;exitX=0.5;exitY=0;exitDx=0;exitDy=0;exitPerimeter=0;" parent="1" source="9tK4x2b667_dypUiwHpl-60" edge="1">
          <mxGeometry relative="1" as="geometry">
            <mxPoint x="-40" y="160" as="targetPoint" />
            <Array as="points">
              <mxPoint x="-527" y="250" />
              <mxPoint x="-40" y="250" />
            </Array>
          </mxGeometry>
        </mxCell>
        <mxCell id="9tK4x2b667_dypUiwHpl-60" value="Actor" style="shape=umlActor;verticalLabelPosition=bottom;verticalAlign=top;html=1;outlineConnect=0;" parent="1" vertex="1">
          <mxGeometry x="-545" y="280" width="35" height="71" as="geometry" />
        </mxCell>
        <mxCell id="9tK4x2b667_dypUiwHpl-72" value="" style="edgeStyle=orthogonalEdgeStyle;rounded=0;orthogonalLoop=1;jettySize=auto;html=1;entryX=0.542;entryY=1;entryDx=0;entryDy=0;entryPerimeter=0;" parent="1" source="9tK4x2b667_dypUiwHpl-63" target="9tK4x2b667_dypUiwHpl-64" edge="1">
          <mxGeometry relative="1" as="geometry">
            <mxPoint x="-20" y="170" as="targetPoint" />
          </mxGeometry>
        </mxCell>
        <mxCell id="9tK4x2b667_dypUiwHpl-63" value="Actor" style="shape=umlActor;verticalLabelPosition=bottom;verticalAlign=top;html=1;outlineConnect=0;" parent="1" vertex="1">
          <mxGeometry x="-40" y="281" width="50" height="70" as="geometry" />
        </mxCell>
        <mxCell id="9tK4x2b667_dypUiwHpl-64" value="&lt;font style=&quot;font-size: 24px;&quot;&gt;Log in&lt;/font&gt;" style="ellipse;whiteSpace=wrap;html=1;" parent="1" vertex="1">
          <mxGeometry x="-80" y="70" width="120" height="80" as="geometry" />
        </mxCell>
        <mxCell id="9tK4x2b667_dypUiwHpl-78" value="" style="edgeStyle=orthogonalEdgeStyle;rounded=0;orthogonalLoop=1;jettySize=auto;html=1;exitX=0.5;exitY=0;exitDx=0;exitDy=0;exitPerimeter=0;" parent="1" source="9tK4x2b667_dypUiwHpl-75" edge="1">
          <mxGeometry relative="1" as="geometry">
            <mxPoint x="425" y="270" as="sourcePoint" />
            <mxPoint x="10" y="150" as="targetPoint" />
            <Array as="points">
              <mxPoint x="495" y="240" />
              <mxPoint x="10" y="240" />
            </Array>
          </mxGeometry>
        </mxCell>
        <mxCell id="9tK4x2b667_dypUiwHpl-75" value="Actor" style="shape=umlActor;verticalLabelPosition=bottom;verticalAlign=top;html=1;outlineConnect=0;" parent="1" vertex="1">
          <mxGeometry x="470" y="289" width="50" height="62" as="geometry" />
        </mxCell>
        <mxCell id="MXLNrHlSr9Uq1XD_Xu4V-3" value="" style="edgeStyle=orthogonalEdgeStyle;rounded=0;orthogonalLoop=1;jettySize=auto;html=1;" parent="1" source="9tK4x2b667_dypUiwHpl-92" target="MXLNrHlSr9Uq1XD_Xu4V-2" edge="1">
          <mxGeometry relative="1" as="geometry">
            <Array as="points">
              <mxPoint x="-650" y="390" />
            </Array>
          </mxGeometry>
        </mxCell>
        <mxCell id="MXLNrHlSr9Uq1XD_Xu4V-7" value="" style="edgeStyle=orthogonalEdgeStyle;rounded=0;orthogonalLoop=1;jettySize=auto;html=1;" parent="1" edge="1">
          <mxGeometry relative="1" as="geometry">
            <mxPoint x="-500" y="390" as="sourcePoint" />
            <mxPoint x="-400" y="490" as="targetPoint" />
            <Array as="points">
              <mxPoint x="-400" y="390" />
            </Array>
          </mxGeometry>
        </mxCell>
        <mxCell id="9tK4x2b667_dypUiwHpl-92" value="&lt;font style=&quot;font-size: 18px;&quot;&gt;VFT Responsible&lt;/font&gt;" style="rounded=1;whiteSpace=wrap;html=1;" parent="1" vertex="1">
          <mxGeometry x="-587.5" y="360" width="120" height="50" as="geometry" />
        </mxCell>
        <mxCell id="MXLNrHlSr9Uq1XD_Xu4V-9" value="" style="edgeStyle=orthogonalEdgeStyle;rounded=0;orthogonalLoop=1;jettySize=auto;html=1;" parent="1" source="9tK4x2b667_dypUiwHpl-98" target="MXLNrHlSr9Uq1XD_Xu4V-8" edge="1">
          <mxGeometry relative="1" as="geometry" />
        </mxCell>
        <mxCell id="MXLNrHlSr9Uq1XD_Xu4V-11" value="" style="edgeStyle=orthogonalEdgeStyle;rounded=0;orthogonalLoop=1;jettySize=auto;html=1;" parent="1" source="9tK4x2b667_dypUiwHpl-98" target="MXLNrHlSr9Uq1XD_Xu4V-10" edge="1">
          <mxGeometry relative="1" as="geometry" />
        </mxCell>
        <mxCell id="9tK4x2b667_dypUiwHpl-98" value="&lt;font style=&quot;font-size: 18px;&quot;&gt;RG Manager / Admin&lt;/font&gt;" style="rounded=1;whiteSpace=wrap;html=1;" parent="1" vertex="1">
          <mxGeometry x="-80" y="360" width="120" height="50" as="geometry" />
        </mxCell>
        <mxCell id="MXLNrHlSr9Uq1XD_Xu4V-17" value="" style="edgeStyle=orthogonalEdgeStyle;rounded=0;orthogonalLoop=1;jettySize=auto;html=1;" parent="1" source="9tK4x2b667_dypUiwHpl-100" target="MXLNrHlSr9Uq1XD_Xu4V-16" edge="1">
          <mxGeometry relative="1" as="geometry" />
        </mxCell>
        <mxCell id="MXLNrHlSr9Uq1XD_Xu4V-19" value="" style="edgeStyle=orthogonalEdgeStyle;rounded=0;orthogonalLoop=1;jettySize=auto;html=1;" parent="1" source="9tK4x2b667_dypUiwHpl-100" target="MXLNrHlSr9Uq1XD_Xu4V-18" edge="1">
          <mxGeometry relative="1" as="geometry" />
        </mxCell>
        <mxCell id="MXLNrHlSr9Uq1XD_Xu4V-21" value="" style="edgeStyle=orthogonalEdgeStyle;rounded=0;orthogonalLoop=1;jettySize=auto;html=1;" parent="1" source="9tK4x2b667_dypUiwHpl-100" target="MXLNrHlSr9Uq1XD_Xu4V-20" edge="1">
          <mxGeometry relative="1" as="geometry" />
        </mxCell>
        <mxCell id="9tK4x2b667_dypUiwHpl-100" value="&lt;font style=&quot;font-size: 18px;&quot;&gt;VFT&amp;nbsp; Responsbile + Admin&lt;/font&gt;" style="rounded=1;whiteSpace=wrap;html=1;" parent="1" vertex="1">
          <mxGeometry x="380" y="360" width="240" height="50" as="geometry" />
        </mxCell>
        <mxCell id="xVE2w1B-XL7oOSJcQJmJ-2" value="" style="edgeStyle=none;curved=1;rounded=0;orthogonalLoop=1;jettySize=auto;html=1;fontSize=12;startSize=8;endSize=8;" edge="1" parent="1" source="MXLNrHlSr9Uq1XD_Xu4V-2" target="xVE2w1B-XL7oOSJcQJmJ-1">
          <mxGeometry relative="1" as="geometry" />
        </mxCell>
        <mxCell id="MXLNrHlSr9Uq1XD_Xu4V-2" value="&lt;font style=&quot;font-size: 16px;&quot;&gt;VFT List&lt;/font&gt;" style="rounded=1;whiteSpace=wrap;html=1;" parent="1" vertex="1">
          <mxGeometry x="-707.5" y="490" width="120" height="60" as="geometry" />
        </mxCell>
        <mxCell id="xVE2w1B-XL7oOSJcQJmJ-36" style="edgeStyle=none;curved=1;rounded=0;orthogonalLoop=1;jettySize=auto;html=1;fontSize=12;startSize=8;endSize=8;" edge="1" parent="1" source="MXLNrHlSr9Uq1XD_Xu4V-6" target="xVE2w1B-XL7oOSJcQJmJ-34">
          <mxGeometry relative="1" as="geometry" />
        </mxCell>
        <mxCell id="xVE2w1B-XL7oOSJcQJmJ-49" style="edgeStyle=none;curved=1;rounded=0;orthogonalLoop=1;jettySize=auto;html=1;entryX=0.5;entryY=0;entryDx=0;entryDy=0;fontSize=12;startSize=8;endSize=8;" edge="1" parent="1" source="MXLNrHlSr9Uq1XD_Xu4V-6" target="xVE2w1B-XL7oOSJcQJmJ-33">
          <mxGeometry relative="1" as="geometry" />
        </mxCell>
        <mxCell id="MXLNrHlSr9Uq1XD_Xu4V-6" value="&lt;font style=&quot;font-size: 16px;&quot;&gt;VFT Assignment Management&lt;/font&gt;" style="whiteSpace=wrap;html=1;rounded=1;" parent="1" vertex="1">
          <mxGeometry x="-460" y="490" width="120" height="60" as="geometry" />
        </mxCell>
        <mxCell id="MXLNrHlSr9Uq1XD_Xu4V-8" value="&lt;font style=&quot;font-size: 16px;&quot;&gt;VFT List&lt;/font&gt;" style="whiteSpace=wrap;html=1;rounded=1;" parent="1" vertex="1">
          <mxGeometry x="-230" y="480" width="120" height="60" as="geometry" />
        </mxCell>
        <mxCell id="xVE2w1B-XL7oOSJcQJmJ-51" value="" style="edgeStyle=none;curved=1;rounded=0;orthogonalLoop=1;jettySize=auto;html=1;fontSize=12;startSize=8;endSize=8;" edge="1" parent="1" source="MXLNrHlSr9Uq1XD_Xu4V-10" target="xVE2w1B-XL7oOSJcQJmJ-50">
          <mxGeometry relative="1" as="geometry" />
        </mxCell>
        <mxCell id="xVE2w1B-XL7oOSJcQJmJ-52" value="" style="edgeStyle=none;curved=1;rounded=0;orthogonalLoop=1;jettySize=auto;html=1;fontSize=12;startSize=8;endSize=8;" edge="1" parent="1" source="MXLNrHlSr9Uq1XD_Xu4V-10" target="xVE2w1B-XL7oOSJcQJmJ-50">
          <mxGeometry relative="1" as="geometry" />
        </mxCell>
        <mxCell id="xVE2w1B-XL7oOSJcQJmJ-54" style="edgeStyle=none;curved=1;rounded=0;orthogonalLoop=1;jettySize=auto;html=1;fontSize=12;startSize=8;endSize=8;" edge="1" parent="1" source="MXLNrHlSr9Uq1XD_Xu4V-10" target="xVE2w1B-XL7oOSJcQJmJ-53">
          <mxGeometry relative="1" as="geometry" />
        </mxCell>
        <mxCell id="MXLNrHlSr9Uq1XD_Xu4V-10" value="&lt;font style=&quot;font-size: 16px;&quot;&gt;VFT Assignment Approval (RG manager / Admin)&lt;/font&gt;" style="whiteSpace=wrap;html=1;rounded=1;" parent="1" vertex="1">
          <mxGeometry x="70" y="480" width="140" height="60" as="geometry" />
        </mxCell>
        <mxCell id="MXLNrHlSr9Uq1XD_Xu4V-16" value="&lt;font style=&quot;font-size: 16px;&quot;&gt;VFT List&lt;/font&gt;" style="whiteSpace=wrap;html=1;rounded=1;" parent="1" vertex="1">
          <mxGeometry x="230" y="480" width="120" height="60" as="geometry" />
        </mxCell>
        <mxCell id="MXLNrHlSr9Uq1XD_Xu4V-18" value="&lt;font style=&quot;font-size: 16px;&quot;&gt;VFT Assignment Approval Panel (Admin / RG Manager)&lt;/font&gt;" style="whiteSpace=wrap;html=1;rounded=1;" parent="1" vertex="1">
          <mxGeometry x="630" y="480" width="170" height="60" as="geometry" />
        </mxCell>
        <mxCell id="MXLNrHlSr9Uq1XD_Xu4V-20" value="&lt;font style=&quot;font-size: 16px;&quot;&gt;VFT Assignment&amp;nbsp; Managerment&lt;/font&gt;" style="whiteSpace=wrap;html=1;rounded=1;" parent="1" vertex="1">
          <mxGeometry x="440" y="480" width="120" height="60" as="geometry" />
        </mxCell>
        <mxCell id="xVE2w1B-XL7oOSJcQJmJ-1" value="&lt;span style=&quot;font-size: 16px;&quot;&gt;Edit VFT&lt;/span&gt;" style="rounded=1;whiteSpace=wrap;html=1;" vertex="1" parent="1">
          <mxGeometry x="-820" y="650" width="120" height="60" as="geometry" />
        </mxCell>
        <mxCell id="xVE2w1B-XL7oOSJcQJmJ-31" value="&#xa;&lt;span style=&quot;color: rgb(0, 0, 0); font-family: Helvetica; font-size: 16px; font-style: normal; font-variant-ligatures: normal; font-variant-caps: normal; font-weight: 400; letter-spacing: normal; orphans: 2; text-align: center; text-indent: 0px; text-transform: none; widows: 2; word-spacing: 0px; -webkit-text-stroke-width: 0px; white-space: normal; background-color: rgb(236, 236, 236); text-decoration-thickness: initial; text-decoration-style: initial; text-decoration-color: initial; display: inline !important; float: none;&quot;&gt;Approval Required&lt;/span&gt;&#xa;&#xa;" style="ellipse;whiteSpace=wrap;html=1;" vertex="1" parent="1">
          <mxGeometry x="-680" y="820" width="180" height="80" as="geometry" />
        </mxCell>
        <mxCell id="xVE2w1B-XL7oOSJcQJmJ-32" value="&lt;br&gt;&lt;span style=&quot;color: rgb(0, 0, 0); font-family: Helvetica; font-size: 16px; font-style: normal; font-variant-ligatures: normal; font-variant-caps: normal; font-weight: 400; letter-spacing: normal; orphans: 2; text-align: center; text-indent: 0px; text-transform: none; widows: 2; word-spacing: 0px; -webkit-text-stroke-width: 0px; white-space: normal; background-color: rgb(236, 236, 236); text-decoration-thickness: initial; text-decoration-style: initial; text-decoration-color: initial; float: none; display: inline !important;&quot;&gt;Delete Assignment&lt;/span&gt;&lt;div&gt;&lt;br&gt;&lt;/div&gt;" style="rounded=1;whiteSpace=wrap;html=1;" vertex="1" parent="1">
          <mxGeometry x="-360" y="650" width="120" height="60" as="geometry" />
        </mxCell>
        <mxCell id="xVE2w1B-XL7oOSJcQJmJ-33" value="&lt;br&gt;&lt;span style=&quot;color: rgb(0, 0, 0); font-family: Helvetica; font-size: 16px; font-style: normal; font-variant-ligatures: normal; font-variant-caps: normal; font-weight: 400; letter-spacing: normal; orphans: 2; text-align: center; text-indent: 0px; text-transform: none; widows: 2; word-spacing: 0px; -webkit-text-stroke-width: 0px; white-space: normal; background-color: rgb(236, 236, 236); text-decoration-thickness: initial; text-decoration-style: initial; text-decoration-color: initial; float: none; display: inline !important;&quot;&gt;Edit Assignment&lt;/span&gt;&lt;div&gt;&lt;br&gt;&lt;/div&gt;" style="rounded=1;whiteSpace=wrap;html=1;" vertex="1" parent="1">
          <mxGeometry x="-500" y="650" width="120" height="60" as="geometry" />
        </mxCell>
        <mxCell id="xVE2w1B-XL7oOSJcQJmJ-47" style="edgeStyle=none;curved=1;rounded=0;orthogonalLoop=1;jettySize=auto;html=1;fontSize=12;startSize=8;endSize=8;" edge="1" parent="1" source="xVE2w1B-XL7oOSJcQJmJ-34" target="xVE2w1B-XL7oOSJcQJmJ-31">
          <mxGeometry relative="1" as="geometry" />
        </mxCell>
        <mxCell id="xVE2w1B-XL7oOSJcQJmJ-34" value="&lt;span style=&quot;font-size: 16px;&quot;&gt;Create Assignment&lt;/span&gt;" style="rounded=1;whiteSpace=wrap;html=1;" vertex="1" parent="1">
          <mxGeometry x="-640" y="650" width="120" height="60" as="geometry" />
        </mxCell>
        <mxCell id="xVE2w1B-XL7oOSJcQJmJ-38" style="edgeStyle=none;curved=1;rounded=0;orthogonalLoop=1;jettySize=auto;html=1;entryX=0.333;entryY=0.017;entryDx=0;entryDy=0;entryPerimeter=0;fontSize=12;startSize=8;endSize=8;" edge="1" parent="1" source="MXLNrHlSr9Uq1XD_Xu4V-6" target="xVE2w1B-XL7oOSJcQJmJ-32">
          <mxGeometry relative="1" as="geometry" />
        </mxCell>
        <mxCell id="xVE2w1B-XL7oOSJcQJmJ-46" style="edgeStyle=none;curved=1;rounded=0;orthogonalLoop=1;jettySize=auto;html=1;entryX=0.194;entryY=0.138;entryDx=0;entryDy=0;entryPerimeter=0;fontSize=12;startSize=8;endSize=8;" edge="1" parent="1" source="xVE2w1B-XL7oOSJcQJmJ-1" target="xVE2w1B-XL7oOSJcQJmJ-31">
          <mxGeometry relative="1" as="geometry" />
        </mxCell>
        <mxCell id="xVE2w1B-XL7oOSJcQJmJ-48" style="edgeStyle=none;curved=1;rounded=0;orthogonalLoop=1;jettySize=auto;html=1;entryX=0.772;entryY=0.113;entryDx=0;entryDy=0;entryPerimeter=0;fontSize=12;startSize=8;endSize=8;" edge="1" parent="1" source="xVE2w1B-XL7oOSJcQJmJ-33" target="xVE2w1B-XL7oOSJcQJmJ-31">
          <mxGeometry relative="1" as="geometry" />
        </mxCell>
        <mxCell id="xVE2w1B-XL7oOSJcQJmJ-50" value="&lt;br&gt;&lt;br style=&quot;forced-color-adjust: none;&quot;&gt;&lt;span style=&quot;forced-color-adjust: none; color: rgb(0, 0, 0); font-family: Helvetica; font-size: 16px; font-style: normal; font-variant-ligatures: normal; font-variant-caps: normal; font-weight: 400; letter-spacing: normal; orphans: 2; text-align: center; text-indent: 0px; text-transform: none; widows: 2; word-spacing: 0px; -webkit-text-stroke-width: 0px; white-space: normal; background-color: rgb(236, 236, 236); text-decoration-thickness: initial; text-decoration-style: initial; text-decoration-color: initial; float: none; display: inline !important;&quot;&gt;&lt;br&gt;&lt;/span&gt;&lt;div&gt;&lt;span style=&quot;forced-color-adjust: none; color: rgb(0, 0, 0); font-family: Helvetica; font-size: 16px; font-style: normal; font-variant-ligatures: normal; font-variant-caps: normal; font-weight: 400; letter-spacing: normal; orphans: 2; text-align: center; text-indent: 0px; text-transform: none; widows: 2; word-spacing: 0px; -webkit-text-stroke-width: 0px; white-space: normal; background-color: rgb(236, 236, 236); text-decoration-thickness: initial; text-decoration-style: initial; text-decoration-color: initial; float: none; display: inline !important;&quot;&gt;Approve Assignment&lt;/span&gt;&lt;div style=&quot;forced-color-adjust: none;&quot;&gt;&lt;br style=&quot;forced-color-adjust: none; color: rgb(0, 0, 0); font-family: Helvetica; font-size: 12px; font-style: normal; font-variant-ligatures: normal; font-variant-caps: normal; font-weight: 400; letter-spacing: normal; orphans: 2; text-align: center; text-indent: 0px; text-transform: none; widows: 2; word-spacing: 0px; -webkit-text-stroke-width: 0px; white-space: normal; background-color: rgb(236, 236, 236); text-decoration-thickness: initial; text-decoration-style: initial; text-decoration-color: initial;&quot;&gt;&lt;br&gt;&lt;br&gt;&lt;/div&gt;&lt;/div&gt;" style="rounded=1;whiteSpace=wrap;html=1;" vertex="1" parent="1">
          <mxGeometry x="10" y="660" width="120" height="60" as="geometry" />
        </mxCell>
        <mxCell id="xVE2w1B-XL7oOSJcQJmJ-53" value="&lt;br&gt;&lt;br style=&quot;forced-color-adjust: none;&quot;&gt;&lt;span style=&quot;background-color: light-dark(rgb(236, 236, 236), rgb(34, 34, 34)); color: light-dark(rgb(0, 0, 0), rgb(237, 237, 237)); font-size: 16px;&quot;&gt;&lt;br&gt;&lt;/span&gt;&lt;div&gt;&lt;span style=&quot;background-color: light-dark(rgb(236, 236, 236), rgb(34, 34, 34)); color: light-dark(rgb(0, 0, 0), rgb(237, 237, 237)); font-size: 16px;&quot;&gt;Reject Assignment&lt;/span&gt;&lt;div&gt;&lt;div style=&quot;forced-color-adjust: none;&quot;&gt;&lt;br style=&quot;forced-color-adjust: none; color: rgb(0, 0, 0); font-family: Helvetica; font-size: 12px; font-style: normal; font-variant-ligatures: normal; font-variant-caps: normal; font-weight: 400; letter-spacing: normal; orphans: 2; text-align: center; text-indent: 0px; text-transform: none; widows: 2; word-spacing: 0px; -webkit-text-stroke-width: 0px; white-space: normal; background-color: rgb(236, 236, 236); text-decoration-thickness: initial; text-decoration-style: initial; text-decoration-color: initial;&quot;&gt;&lt;br&gt;&lt;br&gt;&lt;/div&gt;&lt;/div&gt;&lt;/div&gt;" style="rounded=1;whiteSpace=wrap;html=1;" vertex="1" parent="1">
          <mxGeometry x="150" y="660" width="120" height="60" as="geometry" />
        </mxCell>
      </root>
    </mxGraphModel>
  </diagram>
</mxfile>
